<svg width="128" height="128" viewBox="0 0 128 128" fill="none" xmlns="http://www.w3.org/2000/svg">
<path fill-rule="evenodd" clip-rule="evenodd" d="M35.2431 6.75329C32.9212 7.96716 32.0037 10.5656 33.1024 12.8161C33.436 13.4997 40.7814 20.8763 58.8412 38.6639C73.0107 52.62 84.1129 63.7261 84.1129 63.9447C84.1129 64.163 73.0114 75.2687 58.8432 89.224C40.717 107.077 33.441 114.385 33.1044 115.074C31.2762 118.819 35.2846 122.95 38.9373 121.086C40.2229 120.429 94.2877 66.983 94.8023 65.8595C95.3286 64.7108 95.3286 63.1839 94.8023 62.0353C94.2877 60.9118 40.2229 7.46547 38.9373 6.80906C37.9139 6.28668 36.1856 6.26059 35.2431 6.75329Z" fill="black"/>
</svg>
