<svg width="128" height="128" viewBox="0 0 128 128" fill="none" xmlns="http://www.w3.org/2000/svg">
<path fill-rule="evenodd" clip-rule="evenodd" d="M92.7569 121.247C95.0788 120.033 95.9963 117.434 94.8976 115.184C94.564 114.5 87.2186 107.124 69.1588 89.3361C54.9893 75.38 43.8871 64.2739 43.8871 64.0553C43.8871 63.8369 54.9886 52.7313 69.1568 38.776C87.283 20.9228 94.559 13.6151 94.8956 12.9256C96.7238 9.18078 92.7154 5.04962 89.0627 6.91427C87.7771 7.57068 33.7123 61.017 33.1977 62.1405C32.6714 63.2892 32.6714 64.8161 33.1977 65.9647C33.7123 67.0882 87.7771 120.535 89.0627 121.191C90.0861 121.713 91.8144 121.739 92.7569 121.247Z" fill="black"/>
</svg>
